<?xml version="1.0" encoding="UTF-8"?>
<!-- Generator: visioncortex VTracer 0.6.2 -->
<svg version="1.1" xmlns="http://www.w3.org/2000/svg" width="1148" height="1280">
<path d="M0 0 C0.86452176 -0.00521549 1.72904351 -0.01043099 2.6197629 -0.01580453 C3.57004224 -0.01134309 4.52032159 -0.00688164 5.49939728 -0.002285 C6.50848129 -0.00540498 7.5175653 -0.00852497 8.55722761 -0.01173949 C11.95439127 -0.01974671 15.35137765 -0.01338521 18.74854279 -0.00710678 C21.1775854 -0.00981543 23.60662719 -0.01337565 26.03566742 -0.0177269 C31.95789722 -0.02591781 37.88008062 -0.02469413 43.80230916 -0.01890162 C48.61438293 -0.01438934 53.42644248 -0.01377034 58.23851776 -0.01594925 C58.92275935 -0.01625572 59.60700094 -0.01656218 60.31197712 -0.01687793 C61.70189433 -0.01751737 63.09181153 -0.0181658 64.48172873 -0.01882312 C77.52248298 -0.02452955 90.56320914 -0.01796362 103.60395879 -0.00722238 C114.7994657 0.00171341 125.99493115 0.00016146 137.19043732 -0.00905991 C150.183749 -0.01975702 163.17703604 -0.0239802 176.17035151 -0.01783538 C177.55522569 -0.01719826 178.94009987 -0.01656952 180.32497406 -0.01594925 C181.34711626 -0.01548642 181.34711626 -0.01548642 182.38990781 -0.01501425 C187.19756407 -0.01328563 192.00520473 -0.016206 196.81285858 -0.02090836 C203.28064355 -0.02709527 209.74836849 -0.02270586 216.21614647 -0.01111984 C218.59502214 -0.00846713 220.97390439 -0.00924869 223.35277748 -0.01364517 C226.58997357 -0.01907797 229.82691486 -0.01229402 233.06409454 -0.002285 C234.01437389 -0.00674645 234.96465323 -0.01120789 235.94372892 -0.01580453 C236.80825068 -0.01058903 237.67277244 -0.00537354 238.56349182 0 C239.31105381 0.0003247 240.05861581 0.00064941 240.8288312 0.00098395 C242.78174591 0.25168228 242.78174591 0.25168228 245.78174591 2.25168228 C246.08116005 4.72336462 246.18134447 6.94608779 246.15533352 9.42071724 C246.15928504 10.17146446 246.16323656 10.92221168 246.16730782 11.69570881 C246.17699341 14.23773496 246.16512308 16.77921975 246.15355682 19.32123184 C246.15612894 21.15152081 246.1600276 22.98180833 246.16514641 24.81209195 C246.17546911 29.86221012 246.16708443 34.91215486 246.15584958 39.96226478 C246.14702973 45.4006751 246.15548906 50.83906001 246.16205597 56.27746964 C246.17123031 65.70761955 246.16987021 75.13772086 246.16187096 84.56787109 C246.15066504 98.2067864 246.15965742 111.84563207 246.17443276 125.48454131 C246.19822833 147.61639275 246.21161501 169.74823674 246.2155838 191.88010025 C246.21570695 192.5427216 246.2158301 193.20534294 246.21595698 193.88804373 C246.21867203 208.67732588 246.21958627 223.46660757 246.21853332 238.25588994 C246.21810853 244.29143399 246.21780101 250.32697806 246.21753693 256.36252213 C246.21748776 257.3554704 246.21748776 257.3554704 246.21743761 258.36847824 C246.21640711 281.08101713 246.2307864 303.79351471 246.25836998 326.50603688 C246.27420665 340.11509968 246.27640012 353.72403492 246.26123596 367.33309914 C246.25179483 376.65412498 246.25648908 385.97507372 246.27244978 395.29609047 C246.28117493 400.67982985 246.28321091 406.06336473 246.26792336 411.44709396 C246.25405342 416.37071263 246.2583659 421.29395991 246.27744437 426.21755804 C246.28107289 428.00355983 246.27785691 429.78959061 246.2672947 431.57556485 C246.25394747 433.99448895 246.26496982 436.41209537 246.28231716 438.83096504 C246.26767528 439.88283948 246.26767528 439.88283948 246.25273761 440.95596391 C246.30307601 444.318738 246.5819849 445.99478301 248.67287666 448.68373907 C251.17440485 450.54362401 252.42356072 450.75680253 255.5147171 450.77066422 C256.46260101 450.78457703 257.41048492 450.79848984 258.38709259 450.81282425 C259.4199942 450.80779388 260.45289581 450.80276352 261.51709747 450.79758072 C262.61008148 450.8079184 263.70306549 450.81825607 264.82917023 450.82890701 C268.44371939 450.85841683 272.05771057 450.85983597 275.67237091 450.86105728 C278.17773258 450.87603333 280.68308435 450.89275925 283.18842316 450.91116714 C289.1098402 450.95044479 295.03115517 450.9720664 300.95267272 450.98514104 C308.35674393 451.0025705 315.76060649 451.04740084 323.16455841 451.09152603 C336.37023872 451.16691106 349.57589699 451.21791396 362.78174591 451.25168228 C363.44174591 449.93168228 364.10174591 448.61168228 364.78174591 447.25168228 C365.44174591 447.25168228 366.10174591 447.25168228 366.78174591 447.25168228 C366.78003717 445.84415523 366.78003717 445.84415523 366.77829391 444.40819329 C366.71110364 388.84412185 366.65971629 333.28005416 366.62854992 277.71595026 C366.62479762 271.05037063 366.62091815 264.38479108 366.61695099 257.71921158 C366.61655871 257.0558937 366.61616643 256.39257582 366.61576227 255.7091574 C366.60297009 234.19531072 366.58043011 212.68148763 366.55285425 191.16765525 C366.52377529 168.43996484 366.50576294 145.71228835 366.49948043 122.98457986 C366.49535571 109.36337572 366.48230921 95.74223926 366.45799651 82.12105594 C366.44218839 72.79162941 366.43733433 63.46223808 366.44124178 54.13279911 C366.44317103 48.74314679 366.44012955 43.35361308 366.42412949 37.96398163 C366.40960628 33.03608505 366.40874385 28.10838764 366.41904923 23.18048219 C366.42032422 21.39174217 366.41645465 19.60299008 366.40709636 17.81427409 C366.3951649 15.39424737 366.40147912 12.97495231 366.41260242 10.55493832 C366.40472138 9.85048998 366.39684034 9.14604165 366.38872048 8.42024639 C366.4179833 5.62855682 366.49619438 3.6886056 368.04508084 1.31864941 C370.17537837 0.00984354 371.4423974 -0.12323449 373.93753052 -0.12304783 C374.78811869 -0.13025437 375.63870687 -0.13746091 376.51507044 -0.14488584 C377.44978599 -0.13751155 378.38450154 -0.13013727 379.34754181 -0.12253952 C380.83666651 -0.12850113 380.83666651 -0.12850113 382.35587454 -0.13458318 C385.69784511 -0.14424324 389.03939628 -0.1323655 392.38135529 -0.12063217 C394.77099008 -0.12305891 397.16062386 -0.12677707 399.55025482 -0.13169479 C405.37626317 -0.14014336 411.20213564 -0.13457454 417.02813494 -0.12243185 C423.80933509 -0.1088238 430.59050563 -0.11044865 437.37171596 -0.11256518 C449.46919278 -0.11575649 461.56661076 -0.10407929 473.66407013 -0.08449936 C485.40920555 -0.0654946 497.154272 -0.05841163 508.89942169 -0.06399155 C521.68178653 -0.07004624 534.46412101 -0.06987796 547.24648333 -0.05850571 C548.60888958 -0.05729839 549.97129583 -0.05609241 551.33370209 -0.05488777 C552.00407378 -0.05428423 552.67444548 -0.05368069 553.36513147 -0.05305887 C558.09463855 -0.0491758 562.82413436 -0.04957485 567.55364227 -0.05147362 C573.916382 -0.05335251 580.2790328 -0.04528334 586.64175224 -0.02941322 C588.98192413 -0.02515821 591.32210502 -0.02432794 593.66227913 -0.02710342 C596.84693481 -0.03030836 600.03132196 -0.02128605 603.21595001 -0.00901413 C604.15066556 -0.01279345 605.08538112 -0.01657278 606.04842138 -0.02046663 C607.32430364 -0.01171834 607.32430364 -0.01171834 608.6259613 -0.00279331 C609.36137225 -0.00192653 610.09678319 -0.00105976 610.85447931 -0.00016671 C612.78174591 0.25168228 612.78174591 0.25168228 615.78174591 2.25168228 C616.0812824 5.09383155 616.1818135 7.7188618 616.15664274 10.56411076 C616.16072546 11.44000804 616.16480818 12.31590532 616.16901461 13.21834495 C616.17914136 16.19200081 616.16764547 19.16519661 616.15647602 22.13884354 C616.15929862 24.28599973 616.16343696 26.43315453 616.16878125 28.58030593 C616.17971898 34.53269949 616.17175564 40.48494614 616.16094721 46.43733452 C616.15248724 52.89328931 616.16131461 59.34922311 616.16801137 65.80517673 C616.17786957 77.13727977 616.17551988 88.46934251 616.16627884 99.80144501 C616.15641206 111.96574588 616.15303613 124.13002249 616.15765572 136.29432678 C616.15794275 137.06148878 616.15822979 137.82865078 616.15852553 138.61906012 C616.15971692 141.74338429 616.16095605 144.86770845 616.16225544 147.99203258 C616.17436834 177.12085566 616.17180776 206.24966026 616.1600666 235.37848282 C616.14876623 263.45516527 616.14277703 291.5318395 616.14425468 319.60852432 C616.14434009 321.36973293 616.14442497 323.13094154 616.14450932 324.89215014 C616.14485715 331.96920475 616.14524223 339.04625935 616.1456749 346.12331395 C616.1468697 365.9082553 616.14705134 385.69319659 616.14647198 405.47813797 C616.14644595 406.37919767 616.14641993 407.28025736 616.14639311 408.2086219 C616.14549406 436.93268835 616.14019286 465.65675222 616.13176441 494.38081741 C616.13149122 495.31285145 616.13121804 496.24488549 616.13093657 497.20516298 C616.12648256 512.3420694 616.12176795 527.47897575 616.11703768 542.61588209 C616.09829185 602.65561828 616.09187338 662.69534188 616.09741974 722.73508072 C616.09776672 726.52900414 616.09811234 730.32292755 616.09845803 734.11685097 C616.09854363 735.05487666 616.09862924 735.99290235 616.09871743 736.95935306 C616.09966352 747.34708442 616.10057524 757.73481578 616.1014452 768.12254715 C616.10156358 769.51976527 616.10156358 769.51976527 616.10168435 770.94521001 C616.10590394 821.19727017 616.10060548 871.44932891 616.09193391 921.70138836 C616.09163062 923.47230123 616.09132772 925.2432141 616.09102521 927.01412698 C616.09087562 927.88955692 616.09072603 928.76498687 616.0905719 929.666945 C616.09027048 931.4331413 616.08996949 933.1993376 616.08966894 934.96553391 C616.08892007 939.36578295 616.08816408 943.76603199 616.08739277 948.16628102 C616.08404124 967.47350736 616.08197688 986.78073266 616.08332849 1006.08795929 C616.0834193 1007.39448476 616.0834193 1007.39448476 616.08351194 1008.72740467 C616.08382393 1013.11328127 616.08415735 1017.49915787 616.08449826 1021.88503447 C616.08694593 1053.54512928 616.08291641 1085.20521184 616.06728826 1116.86530328 C616.06577823 1119.97988143 616.0642982 1123.0944596 616.06284142 1126.20903778 C616.06248068 1126.97344039 616.06211994 1127.73784299 616.06174826 1128.52540931 C616.05619796 1140.66032829 616.05735436 1152.79523706 616.06124625 1164.9301563 C616.06492333 1176.84399989 616.06133454 1188.75782213 616.05038204 1200.6716614 C616.04471808 1207.05248934 616.04230711 1213.43327537 616.04854862 1219.81410372 C616.05414644 1225.60627264 616.05071964 1231.39835971 616.03974984 1237.1905203 C616.03742153 1239.28500874 616.03852303 1241.37950417 616.04327239 1243.47398852 C616.04919379 1246.29584525 616.0430307 1249.11741309 616.03359491 1251.93925381 C616.03825826 1252.76334041 616.0429216 1253.58742701 616.04772627 1254.43648594 C616.01005798 1260.02337021 616.01005798 1260.02337021 613.78174591 1262.25168228 C611.96470308 1262.50238061 611.96470308 1262.50238061 609.71498108 1262.50336456 C608.43071016 1262.5111878 608.43071016 1262.5111878 607.12049437 1262.51916909 C606.17440196 1262.51470765 605.22830955 1262.51024621 604.25354767 1262.50564957 C603.25277962 1262.50876955 602.25201158 1262.51188953 601.22091722 1262.51510406 C597.84595238 1262.52312227 594.47116543 1262.51674555 591.09619904 1262.51047134 C588.68538558 1262.51317951 586.27457295 1262.51673945 583.8637619 1262.52109146 C577.98250471 1262.52928724 572.10129422 1262.52805615 566.22003829 1262.52226618 C561.4417802 1262.51775615 556.66353641 1262.51713392 551.88527679 1262.51931381 C550.86660418 1262.51977351 550.86660418 1262.51977351 549.82735232 1262.5202425 C548.44790184 1262.52088192 547.06845137 1262.52153035 545.6890009 1262.52218768 C532.74270611 1262.52789579 519.79643961 1262.52132555 506.85014945 1262.51058695 C495.7327703 1262.501651 484.6154329 1262.5032029 473.4980545 1262.51242447 C460.59924808 1262.52311862 447.70046648 1262.52734643 434.80165625 1262.52119994 C433.42717584 1262.52056282 432.05269544 1262.51993408 430.67821503 1262.51931381 C430.00187941 1262.51900526 429.3255438 1262.51869671 428.62871316 1262.51837881 C423.8541616 1262.5166493 419.07962573 1262.51957248 414.3050766 1262.52427292 C407.88327127 1262.53045586 401.46152644 1262.52607707 395.03972816 1262.51448441 C392.67655888 1262.51182976 390.31338298 1262.51261651 387.95021629 1262.51700974 C384.73670087 1262.522435 381.52344295 1262.51566793 378.30994415 1262.50564957 C377.36385174 1262.51011101 376.41775933 1262.51457245 375.44299746 1262.51916909 C374.58681684 1262.5139536 373.73063622 1262.5087381 372.84851074 1262.50336456 C371.73489835 1262.50287751 371.73489835 1262.50287751 370.59878874 1262.50238061 C368.78174591 1262.25168228 368.78174591 1262.25168228 366.78174591 1260.25168228 C366.5858171 1257.18301688 366.51784832 1254.20471791 366.53565025 1251.13492012 C366.53334256 1250.17361618 366.53103488 1249.21231224 366.52865726 1248.22187787 C366.52331532 1244.96374982 366.53237596 1241.70581493 366.54123688 1238.44769669 C366.54036567 1236.10308349 366.53861625 1233.75847049 366.53605855 1231.41385853 C366.53203665 1225.6223189 366.53737251 1219.83083935 366.5465399 1214.0393068 C366.55698926 1207.1059399 366.55585313 1200.17258766 366.55425098 1193.23921481 C366.5516197 1180.442447 366.55831921 1167.6456998 366.5702858 1154.84893799 C366.58210865 1142.17347359 366.58981542 1129.49801778 366.59199142 1116.82254791 C366.5921289 1116.03524042 366.59226638 1115.24793293 366.59240803 1114.43676763 C366.59308467 1110.43864005 366.59368745 1106.44051246 366.59426178 1102.44238485 C366.5984657 1074.1032581 366.61194903 1045.76414256 366.630867 1017.42502213 C366.64922754 989.88921544 366.66339885 962.35341183 366.67188263 934.81760025 C366.67214568 933.96923954 366.67240873 933.12087884 366.67267976 932.24681023 C366.67531673 923.72743834 366.67786837 915.20806642 366.68035748 906.68869448 C366.68543028 889.33282868 366.69107279 871.97696308 366.69705963 854.62109756 C366.6974715 853.42403287 366.6974715 853.42403287 366.69789169 852.20278505 C366.71630162 798.88574608 366.74803453 745.56871351 366.78174591 692.25168228 C365.83299591 692.12793228 364.88424591 692.00418228 363.90674591 691.87668228 C360.78174591 691.25168228 360.78174591 691.25168228 358.78174591 689.25168228 C356.7881088 688.94288024 356.7881088 688.94288024 354.46805573 688.98425674 C353.5623584 688.97572678 352.65666107 688.96719681 351.72351837 688.95840836 C350.22891083 688.95976791 350.22891083 688.95976791 348.70410919 688.96115494 C347.65685669 688.95443771 346.60960419 688.94772049 345.53061676 688.94079971 C342.05438292 688.92173758 338.57834132 688.91789132 335.10205841 688.91574478 C332.69311187 688.90932238 330.28416612 688.90259446 327.87522125 688.89557266 C322.81946758 688.88357919 317.76378234 688.87989395 312.70801544 688.88107681 C306.22216353 688.88128007 299.73674946 688.85397925 293.25100136 688.81953239 C288.27365851 688.79731966 283.29642193 688.79323755 278.31903458 688.79429626 C275.9275728 688.79193176 273.53610846 688.78306082 271.14469528 688.76763153 C267.80220699 688.74808657 264.46067462 688.753765 261.11817169 688.76584244 C260.12581512 688.75460342 259.13345856 688.74336441 258.11103058 688.73178482 C257.1996936 688.7401738 256.28835663 688.74856277 255.34940338 688.75720596 C254.16418689 688.75557166 254.16418689 688.75557166 252.95502663 688.75390434 C249.73829948 689.49067792 248.75662138 690.59123397 246.78174591 693.25168228 C246.17618295 696.3670912 246.24264925 699.44923433 246.27393723 702.6145401 C246.26763347 703.57815173 246.26132972 704.54176336 246.25483495 705.53457534 C246.23847143 708.78868113 246.25077597 712.04206079 246.26276398 715.29617691 C246.2568931 717.64252063 246.24926837 719.98886051 246.24003291 722.3351934 C246.22182334 728.12327993 246.22225783 733.9111592 246.23038816 739.69926378 C246.23907178 746.63009661 246.22457574 753.56083046 246.20917688 760.49164468 C246.18140673 773.28306606 246.17224644 786.07443793 246.17362976 798.86588669 C246.17493917 811.53413511 246.16801556 824.20233479 246.15005493 836.87057114 C246.14894354 837.65774115 246.14783216 838.44491116 246.14668709 839.25593481 C246.14100014 843.25344466 246.13516569 847.25095428 246.12927446 851.24846384 C246.08779379 879.57537823 246.06483506 907.90228045 246.052742 936.22922134 C246.0409502 963.75137083 246.0207854 991.27349332 245.98926544 1018.79562759 C245.98781352 1020.06777407 245.98781352 1020.06777407 245.98633226 1021.36562048 C245.97660258 1029.88243334 245.96670248 1038.399246 245.95667749 1046.91605852 C245.93625865 1064.26635569 245.91697749 1081.61665406 245.89838409 1098.96695328 C245.89752777 1099.76472183 245.89667144 1100.56249037 245.89578916 1101.38443373 C245.83871881 1154.67350186 245.80825338 1207.96259124 245.78174591 1261.25168228 C243.48540693 1262.39985177 242.20565288 1262.37793323 239.6525116 1262.38031673 C238.3473403 1262.3851534 238.3473403 1262.3851534 237.01580191 1262.39008778 C236.0541457 1262.38853918 235.0924895 1262.38699058 234.1016922 1262.38539505 C233.08458994 1262.38766061 232.06748769 1262.38992616 231.01956415 1262.39226037 C227.58936861 1262.39862325 224.15921235 1262.39776955 220.72901154 1262.39694595 C218.27879027 1262.39993599 215.82856947 1262.40333815 213.3783493 1262.40712357 C207.40085029 1262.41506147 201.42336691 1262.41817886 195.44586408 1262.41873594 C190.58942421 1262.41921055 185.73298761 1262.42126252 180.87654877 1262.42443657 C167.11945016 1262.43324545 153.36235937 1262.4378555 139.60525793 1262.4371061 C138.86315228 1262.43706614 138.12104664 1262.43702618 137.35645294 1262.43698502 C136.61344549 1262.43694414 135.87043803 1262.43690325 135.1049152 1262.43686114 C123.05600802 1262.43645445 111.00713205 1262.44602911 98.95823389 1262.46012338 C86.59808305 1262.47446815 74.23794745 1262.48139464 61.87778807 1262.48052961 C54.93379874 1262.48019701 47.98984214 1262.48297146 41.04586029 1262.49370766 C34.51900149 1262.503734 27.99220026 1262.50349683 21.46533394 1262.49619102 C19.06346092 1262.49513999 16.66158367 1262.4975385 14.25971794 1262.50355148 C10.99366195 1262.51120138 7.72784988 1262.50667345 4.46179962 1262.49892044 C3.50014342 1262.504064 2.53848722 1262.50920757 1.54768991 1262.514507 C0.67757572 1262.5099082 -0.19253848 1262.5053094 -1.08901978 1262.50057125 C-2.22085874 1262.5008973 -2.22085874 1262.5008973 -3.37556314 1262.50122994 C-5.21825409 1262.25168228 -5.21825409 1262.25168228 -7.21825409 1260.25168228 C-7.41583671 1257.4483755 -7.4859737 1254.74383847 -7.47010309 1251.93925381 C-7.47303195 1251.06335652 -7.47596081 1250.18745924 -7.47897843 1249.28501962 C-7.48643179 1246.31145287 -7.4794724 1243.33808716 -7.47272968 1240.36452103 C-7.47511654 1238.21736578 -7.47837978 1236.07021135 -7.48244628 1233.92305863 C-7.49113173 1227.97069533 -7.48721296 1222.01839443 -7.48139056 1216.06603004 C-7.477245 1209.61007772 -7.48460805 1203.15413732 -7.49054307 1196.69818783 C-7.49969172 1185.3660939 -7.5006742 1174.03401612 -7.49703979 1162.70191956 C-7.49316959 1150.53762153 -7.49360897 1138.3733352 -7.49934959 1126.20903778 C-7.49988783 1125.05829478 -7.49988783 1125.05829478 -7.50043694 1123.88430445 C-7.50191178 1120.75998027 -7.50341617 1117.63565612 -7.50495841 1114.51133198 C-7.5206128 1082.76066408 -7.52327027 1051.01000421 -7.52080235 1019.25933314 C-7.52046392 1014.86887519 -7.52014182 1010.47841724 -7.51983666 1006.08795929 C-7.51977562 1005.21597196 -7.51971458 1004.34398463 -7.51965168 1003.44557344 C-7.51838105 984.14099752 -7.52097886 964.83642271 -7.52436273 945.53184712 C-7.52513347 941.12703067 -7.52587819 936.72221422 -7.52662775 932.31739777 C-7.52692944 930.54964084 -7.52723132 928.78188391 -7.52753339 927.01412698 C-7.52768307 926.13789773 -7.52783275 925.26166849 -7.52798696 924.35888685 C-7.52829049 922.58656249 -7.52859517 920.81423813 -7.52890101 919.04191378 C-7.53757731 868.73545813 -7.54221554 818.42900346 -7.53795338 768.12254715 C-7.53787532 767.19051311 -7.53779726 766.25847908 -7.53771684 765.29820159 C-7.536844 754.90441804 -7.53591474 744.51063451 -7.53496621 734.11685097 C-7.5348807 733.1783985 -7.53479519 732.23994603 -7.53470709 731.2730556 C-7.53399618 723.47407057 -7.53399618 723.47407057 -7.53366486 719.88748247 C-7.52812785 659.84774355 -7.53567338 599.80801999 -7.55443573 539.76828384 C-7.55915769 524.6391284 -7.56383809 509.50997295 -7.56827259 494.38081741 C-7.56854591 493.44933867 -7.56881923 492.51785992 -7.56910084 491.55815455 C-7.57746775 462.86481567 -7.58215139 434.17147806 -7.58298016 405.47813797 C-7.58300652 404.57773475 -7.58303289 403.67733152 -7.58306005 402.74964335 C-7.58360075 382.98691245 -7.58322857 363.22418165 -7.58202034 343.46145079 C-7.58159469 336.39061344 -7.58122957 329.31977609 -7.5808909 322.24893874 C-7.5808056 320.48979831 -7.58071666 318.73065788 -7.58062408 316.97151744 C-7.57917335 288.90282069 -7.5863142 260.83413436 -7.59762804 232.76544011 C-7.6092586 203.72297431 -7.60986318 174.68052716 -7.59778462 145.63806129 C-7.5965327 142.52348313 -7.59532923 139.40890497 -7.59416389 136.29432678 C-7.5938736 135.52992418 -7.59358331 134.76552157 -7.59328422 133.97795525 C-7.58894802 121.84302942 -7.59470837 109.70812996 -7.60460409 97.57320826 C-7.61410916 85.65935774 -7.61275609 73.7455514 -7.60039786 61.83170316 C-7.59408866 55.4508552 -7.59267477 49.07010355 -7.6042612 42.68926084 C-7.61468282 36.89705889 -7.61157352 31.1050362 -7.59715667 25.31284426 C-7.5944033 23.21835517 -7.59679666 21.12385217 -7.60466382 19.02937604 C-7.61454922 16.2073971 -7.60630455 13.38606183 -7.59315091 10.56411076 C-7.60044128 9.74002415 -7.60773164 8.91593755 -7.61524292 8.06687863 C-7.59321292 5.80947572 -7.59321292 5.80947572 -7.21825409 2.25168228 C-4.1263004 0.19037982 -3.49279314 0.0015171 0 0 Z " fill="#000102" transform="translate(10.218254089355469,10.74831771850586)"/>
<path d="M0 0 C0.84452668 -0.00551417 1.68905337 -0.01102833 2.55917177 -0.0167096 C5.40826496 -0.03037824 8.25649677 -0.01536814 11.10557461 -0.00063419 C13.16104325 -0.00452441 15.21650921 -0.0101626 17.27196878 -0.01740509 C22.93521833 -0.03221767 28.59819147 -0.0219441 34.26143229 -0.00766838 C40.36305839 0.00340456 46.46464453 -0.00848893 52.56626797 -0.01751041 C63.8332024 -0.03066228 75.10002282 -0.02564328 86.36694616 -0.01143513 C96.77399574 0.00160452 107.18101335 0.00681496 117.58807087 0.00424671 C118.27776123 0.0040863 118.9674516 0.00392588 119.67804167 0.0037606 C122.47754246 0.00309704 125.27704323 0.00239464 128.076544 0.00163526 C154.34955005 -0.00539226 180.62249979 0.01011445 206.89549151 0.03625872 C230.25154255 0.05937716 253.60753168 0.06476139 276.96359158 0.05452633 C282.9444548 0.05192444 288.92531803 0.04933947 294.90618134 0.04692841 C296.01055943 0.04648223 296.01055943 0.04648223 297.1372482 0.04602705 C316.63841533 0.03841729 336.13957737 0.04481967 355.64074224 0.05562443 C357.73832205 0.05677226 359.83590187 0.05791544 361.93348169 0.05905125 C363.32503184 0.0598065 364.71658199 0.06057214 366.10813213 0.06134826 C376.51083986 0.06701348 386.91353157 0.06567201 397.31623936 0.06112003 C409.14046461 0.05601965 420.96462758 0.06213253 432.78884275 0.08201433 C438.82659251 0.09191493 444.86424442 0.09696169 450.90199947 0.08912182 C456.42188311 0.08210079 461.94156869 0.08878523 467.46142607 0.10672545 C469.46538054 0.11079328 471.46935285 0.10973138 473.47330082 0.10320658 C476.18354766 0.09513288 478.89311465 0.10527441 481.60331726 0.12025452 C482.39325686 0.11351687 483.18319646 0.10677921 483.99707362 0.09983739 C489.19872407 0.15598302 489.19872407 0.15598302 491.72395581 1.76735818 C492.96127055 3.88064907 493.11268403 5.16652208 493.11067486 7.61229706 C493.12055962 8.87342909 493.12055962 8.87342909 493.13064408 10.16003853 C493.12258768 11.08376336 493.11453127 12.00748819 493.10623074 12.95920467 C493.111134 14.43101174 493.111134 14.43101174 493.11613631 15.93255228 C493.12344574 19.23540965 493.1092323 22.53782854 493.09518337 25.84065914 C493.09597383 28.20235933 493.09806982 30.5640594 493.10137844 32.92575741 C493.10652417 39.35119067 493.09295393 45.77646451 493.07585144 52.20187211 C493.06101605 58.23442059 493.06206619 64.26697954 493.06147489 70.29954236 C493.05978613 82.2517533 493.0439622 94.20390357 493.01998806 106.15608883 C492.9967242 117.76253926 492.9825627 129.36895121 492.97897243 140.97542477 C492.97874967 141.69038473 492.9785269 142.40534469 492.97829738 143.14197011 C492.97785479 144.58220326 492.97741277 146.02243642 492.97697131 147.46266958 C492.97675175 148.17307135 492.97653218 148.88347312 492.97630596 149.61540222 C492.97598198 150.67825896 492.97598198 150.67825896 492.97565146 151.76258755 C492.97195306 162.81195546 492.96059364 173.86131712 492.94817556 184.9106782 C492.94373645 188.9198996 492.94029977 192.92912033 492.93755344 196.93834312 C492.93271271 203.88987512 492.9226168 210.84137405 492.90672588 217.7928896 C492.90219145 220.10606904 492.89936153 222.41925252 492.89831829 224.73243618 C492.89658085 227.87796163 492.88871984 231.02341145 492.87917995 234.16892147 C492.88047968 235.55785479 492.88047968 235.55785479 492.88180566 236.97484738 C492.85294571 243.27215595 492.85294571 243.27215595 491.73873806 245.50057125 C490.47883903 245.50203781 489.21893999 245.50350437 487.9208622 245.50501537 C458.032931 245.54069495 428.14511567 245.59690354 398.25727783 245.6784922 C394.58093229 245.68851001 390.90458631 245.69835408 387.22824001 245.70809078 C386.13036948 245.71100284 386.13036948 245.71100284 385.01031975 245.71397373 C373.1495082 245.74501948 361.28871602 245.76198155 349.42787149 245.77376547 C337.26321814 245.78616373 325.09866663 245.81363502 312.93407756 245.85518432 C305.42404451 245.88035788 297.91418029 245.89368574 290.40410445 245.89200082 C284.65143955 245.89196763 278.89900019 245.912876 273.14641476 245.94173908 C270.78206826 245.95028842 268.41768579 245.95195422 266.05333042 245.94637394 C262.83538724 245.93978819 259.61848711 245.95752451 256.40064907 245.98158932 C255.45610526 245.9738289 254.51156145 245.96606848 253.53839511 245.9580729 C251.199308 245.9892304 249.0314504 246.03679759 246.73873806 246.50057125 C244.71991457 248.37808789 244.71991457 248.37808789 243.73873806 250.50057125 C243.07873806 250.50057125 242.41873806 250.50057125 241.73873806 250.50057125 C241.77587657 275.46526825 241.83569575 300.42982129 241.9226408 325.39439678 C241.9624785 336.98545475 241.99484694 348.57644436 242.00973415 360.16756344 C242.02272616 370.26841713 242.04962799 380.36912071 242.09335113 390.46988988 C242.11602114 395.81998228 242.13164543 401.16988914 242.13062191 406.52003384 C242.12987857 411.55321611 242.14769791 416.58598739 242.17990589 421.61906338 C242.18844182 423.46857995 242.19012992 425.31814243 242.18454075 427.16767025 C242.17793466 429.68909498 242.19573859 432.20919902 242.21975613 434.73049068 C242.21199571 435.46590139 242.20423529 436.2013121 242.19623971 436.95900798 C242.24949633 440.10751436 242.57827182 442.22994594 244.19384861 444.95460606 C248.04794703 447.29588733 251.54526678 447.05173591 255.97595119 447.00609493 C256.92125836 447.01218505 257.86656552 447.01827517 258.84051836 447.02454984 C262.01598701 447.04019724 265.19070654 447.02734236 268.36617947 447.01473141 C270.63936241 447.02018983 272.91254167 447.02742984 275.18571377 447.03632259 C280.08413473 447.05168104 284.98234618 447.05445293 289.88078594 447.04755688 C297.61927685 447.03679686 305.35754757 447.0541201 313.09600735 447.07536983 C323.93884449 447.10221026 334.78161246 447.11655726 345.62448025 447.11971188 C346.65654833 447.12001786 346.65654833 447.12001786 347.70946626 447.12033002 C348.39838868 447.12053339 349.0873111 447.12073676 349.79710996 447.12094629 C359.56932571 447.12386768 369.34152846 447.13067338 379.11373806 447.14217281 C379.80155234 447.14297811 380.48936662 447.1437834 381.19802375 447.1446131 C392.65424148 447.15835398 404.11043285 447.18014698 415.56662977 447.20604265 C423.26665057 447.2225887 430.96657693 447.22794811 438.66661382 447.22445226 C443.44674566 447.22401669 448.22684153 447.2315576 453.00696278 447.24112797 C455.23145369 447.24382146 457.4559518 447.24304104 459.68043995 447.2386179 C462.70555024 447.23301654 465.73039757 447.23947858 468.75549221 447.24901485 C469.6457471 447.24435164 470.536002 447.23968843 471.45323431 447.2348839 C477.51060932 447.27244251 477.51060932 447.27244251 479.73873806 449.50057125 C479.93912461 452.60455802 480.0122615 455.61966722 479.99943447 458.72505856 C480.00326002 459.69315818 480.00708557 460.66125781 480.01102704 461.65869379 C480.02139784 464.92309781 480.01735718 468.18732727 480.01339626 471.45174313 C480.01774045 473.78374044 480.02292261 476.11573632 480.02888393 478.44773006 C480.04231593 484.79673298 480.042848 491.14567653 480.04032063 497.4946909 C480.03911913 503.45422856 480.04532075 509.41375609 480.05075409 515.37329072 C480.06163883 527.89610201 480.05946262 540.41888639 480.05336925 552.94169921 C480.04819817 564.4086395 480.05945887 575.87549488 480.07846747 587.34241837 C480.09781883 599.1059285 480.1061067 610.8693984 480.10234421 622.63292456 C480.10052599 629.24158248 480.10322106 635.85016262 480.11705875 642.45880795 C480.12957783 648.67052998 480.12774942 654.88208131 480.11464787 661.09380054 C480.11226965 663.37956899 480.11506086 665.66534923 480.12327099 667.95110416 C480.13363526 671.05963269 480.12572143 674.16757732 480.11295986 677.27608395 C480.12033415 678.19104877 480.12770843 679.10601359 480.13530618 680.04870462 C480.11346817 682.55874538 480.11346817 682.55874538 479.73873806 686.50057125 C475.77258076 689.14467612 472.36265865 688.77174054 467.76017666 688.74108028 C466.830647 688.74278913 465.90111734 688.74449798 464.94342011 688.74625862 C461.81562644 688.7495639 458.68804531 688.7385327 455.56027126 688.72762203 C453.32340405 688.72705814 451.08653646 688.72737404 448.84966946 688.72850704 C442.76529819 688.72908242 436.68100528 688.71729812 430.59665227 688.70335913 C424.24250352 688.69088264 417.8883531 688.68968371 411.53419399 688.68730831 C400.86529933 688.68179223 390.19643572 688.66928767 379.52755642 688.65145016 C368.53797455 688.63309554 357.54840052 688.61893699 346.55880642 688.61043453 C345.54291668 688.60964636 345.54291668 688.60964636 344.50650392 688.60884227 C341.1089317 688.60623222 337.71135942 688.6037048 334.3137871 688.60121846 C306.12208402 688.58048092 277.93041283 688.54510245 249.73873806 688.50057125 C249.40873806 689.82057125 249.07873806 691.14057125 248.73873806 692.50057125 C247.74873806 692.50057125 246.75873806 692.50057125 245.73873806 692.50057125 C245.7394975 693.70168258 245.74025694 694.9027939 245.7410394 696.14030254 C245.77436217 749.05019437 245.80521981 801.96008712 245.82342434 854.86998653 C245.82383851 856.07066875 245.82383851 856.07066875 245.82426105 857.29560717 C245.83024623 874.68972802 245.83578668 892.08384898 245.84086872 909.47797012 C245.84336349 918.00747651 245.84595659 926.53698287 245.84860134 935.06648922 C245.84886286 935.91529835 245.84912438 936.76410748 245.84939382 937.6386381 C245.85792349 965.17369069 245.87295129 992.70873508 245.8913325 1020.2437827 C245.91018016 1048.52880335 245.92250487 1076.81381947 245.92656804 1105.09884629 C245.92714439 1109.08970983 245.92779566 1113.08057336 245.92849255 1117.07143688 C245.92869482 1118.24967882 245.92869482 1118.24967882 245.92890117 1119.45172363 C245.93126882 1132.11938178 245.94055627 1144.78702596 245.95240213 1157.4546784 C245.96415137 1170.1757918 245.96868037 1182.89689127 245.96574081 1195.61800991 C245.96434925 1202.5163304 245.96622971 1209.41461328 245.97714901 1216.31292629 C245.986819 1222.61806059 245.98741404 1228.92312568 245.98053585 1235.22826304 C245.97968466 1237.51899818 245.98227447 1239.8097375 245.98850442 1242.10046433 C245.99643652 1245.19499933 245.99226239 1248.2892787 245.98483372 1251.38380909 C245.99008774 1252.28982327 245.99534177 1253.19583746 246.00075501 1254.12930661 C245.96702966 1260.27227965 245.96702966 1260.27227965 243.73873806 1262.50057125 C241.870399 1262.75011891 241.870399 1262.75011891 239.54703426 1262.74946022 C238.66298648 1262.75405902 237.7789387 1262.75865781 236.8681016 1262.76339597 C235.8908816 1262.7582524 234.9136616 1262.75310884 233.90682888 1262.74780941 C232.87339242 1262.75022383 231.83995595 1262.75263824 230.77520323 1262.75512582 C227.28967786 1262.76079097 223.8043335 1262.75207846 220.31881618 1262.74349117 C217.82918657 1262.74456336 215.33955719 1262.74650108 212.84992886 1262.74924374 C206.77615245 1262.75359981 200.70244768 1262.74863523 194.62868202 1262.73939344 C187.56110863 1262.72902483 180.49354708 1262.72907922 173.42596751 1262.72956602 C160.81878709 1262.73006699 148.211632 1262.72089545 135.60446072 1262.7063818 C123.36064092 1262.69229367 111.11684342 1262.685211 98.8730154 1262.68587399 C98.11896178 1262.68591394 97.36490815 1262.6859539 96.58800441 1262.68599506 C95.83527694 1262.68603542 95.08254947 1262.68607577 94.30701208 1262.68611735 C80.38338807 1262.68680665 66.45977357 1262.68092023 52.53615263 1262.67196414 C47.60531349 1262.66894362 42.67447609 1262.66788408 37.74363613 1262.66743183 C31.11172565 1262.66667971 24.47983573 1262.66034939 17.84793186 1262.65026569 C15.40735996 1262.6473346 12.96678534 1262.64611655 10.52621174 1262.64669323 C7.2076648 1262.6471808 3.88918488 1262.6415591 0.57064724 1262.63428402 C-0.89518275 1262.63660692 -0.89518275 1262.63660692 -2.39062548 1262.63897675 C-3.27467326 1262.63575231 -4.15872104 1262.63252786 -5.06955814 1262.6292057 C-5.83626851 1262.62850128 -6.60297887 1262.62779685 -7.39292288 1262.62707108 C-9.26126194 1262.50057125 -9.26126194 1262.50057125 -11.26126194 1261.50057125 C-12.53701843 1257.67330177 -12.39998148 1254.07955437 -12.39006311 1250.09189373 C-12.39183812 1249.21774453 -12.39361313 1248.34359534 -12.39544192 1247.44295677 C-12.40021437 1244.48142871 -12.3978011 1241.51994868 -12.39548302 1238.55841827 C-12.39743452 1236.41752517 -12.39982282 1234.27663243 -12.40261099 1232.13574025 C-12.40903928 1226.2054274 -12.40917037 1220.27512804 -12.40833358 1214.34481237 C-12.40850252 1207.91097933 -12.41440235 1201.47715121 -12.41957444 1195.0433206 C-12.42801095 1183.75155418 -12.4323277 1172.45979047 -12.43430042 1161.1680212 C-12.43642721 1149.04768289 -12.44068293 1136.92734819 -12.44754314 1124.8070116 C-12.44797376 1124.04246164 -12.44840437 1123.27791167 -12.44884804 1122.49019352 C-12.45060633 1119.37647611 -12.45237598 1116.26275872 -12.45416106 1113.14904133 C-12.47577187 1075.37987431 -12.48664097 1037.61070657 -12.49563729 999.84153478 C-12.49857016 987.59723845 -12.50193989 975.35294229 -12.50560451 963.10864615 C-12.5058628 962.24515815 -12.50612109 961.38167015 -12.50638721 960.49201584 C-12.50743339 956.99884117 -12.50848182 953.5056665 -12.50953303 950.01249184 C-12.52749731 890.26514273 -12.54287806 830.51779334 -12.55029206 770.77044192 C-12.55087604 766.07646994 -12.5514733 761.38249797 -12.55206968 756.688526 C-12.5521878 755.75737519 -12.55230592 754.82622438 -12.55242761 753.86685688 C-12.55362503 744.43272203 -12.55483378 734.99858718 -12.55606015 725.56445233 C-12.55630538 723.67285587 -12.55654924 721.7812594 -12.55679172 719.88966293 C-12.56458441 659.11552972 -12.58697459 598.34141582 -12.61946814 537.56729105 C-12.64280455 493.90546925 -12.66436101 450.24365128 -12.67147446 406.58182335 C-12.67162148 405.68445805 -12.6717685 404.78709275 -12.67191997 403.86253456 C-12.67510434 384.16597982 -12.67715555 364.46942512 -12.67814752 344.77287015 C-12.67856228 336.84841384 -12.67911718 328.92395753 -12.67970943 320.99950123 C-12.6797701 320.1321965 -12.67983077 319.26489177 -12.67989328 318.37130508 C-12.68191151 290.40224654 -12.69616632 262.43321074 -12.71665444 234.46416013 C-12.73720903 206.30461488 -12.7451432 178.14509595 -12.73557667 149.98554394 C-12.73425812 146.09887332 -12.7330801 142.21220266 -12.73198605 138.32553196 C-12.7317662 137.5636009 -12.73154635 136.80166984 -12.73131984 136.01664996 C-12.72819916 123.92659509 -12.73855662 111.83659037 -12.7544616 99.74654713 C-12.76980405 87.87341041 -12.77066888 76.00034904 -12.75691336 64.12720979 C-12.74996448 57.7695497 -12.74952365 51.41206322 -12.76647345 45.05441809 C-12.78174155 39.28090846 -12.77890227 33.50771393 -12.76106317 27.73421426 C-12.75789009 25.64875189 -12.76155106 23.56326623 -12.77255492 21.47783048 C-12.78645022 18.66302785 -12.77604137 15.84935918 -12.75920659 13.03459793 C-12.76912397 12.21828423 -12.77904134 11.40197053 -12.78925924 10.56092006 C-12.74417524 7.02140287 -12.55531338 4.90915902 -10.46054868 1.99845996 C-7.14395889 -0.26040074 -3.87235106 -0.04744825 0 0 Z " fill="#000102" transform="translate(648.2612619400024,10.499428749084473)"/>
</svg>
